<svg xmlns="http://www.w3.org/2000/svg" xmlns:xlink="http://www.w3.org/1999/xlink" version="1.1" x="0" y="0" viewBox="0 0 220.0 220.0" width="220.0" height="220.0"><rect x="3" y="3" width="214" height="214" rx="9" stroke-width="6" stroke="#222222" fill="#FFFFFF" /><g transform="translate(18.0, 18.0)"><g fill="#222222"><rect x="57.90025862068965" y="0.8030172413793103" width="4.758103448275862" height="4.758103448275862" rx="4"></rect><rect x="76.93267241379311" y="0.8030172413793103" width="4.758103448275862" height="4.758103448275862" rx="4"></rect><rect x="83.2768103448276" y="0.8030172413793103" width="4.758103448275862" height="4.758103448275862" rx="4"></rect><rect x="95.96508620689656" y="0.8030172413793103" width="4.758103448275862" height="4.758103448275862" rx="4"></rect><rect x="102.30922413793104" y="0.8030172413793103" width="4.758103448275862" height="4.758103448275862" rx="4"></rect><rect x="121.34163793103448" y="0.8030172413793103" width="4.758103448275862" height="4.758103448275862" rx="4"></rect><rect x="127.68577586206897" y="0.8030172413793103" width="4.758103448275862" height="4.758103448275862" rx="4"></rect><rect x="76.93267241379311" y="7.147155172413792" width="4.758103448275862" height="4.758103448275862" rx="4"></rect><rect x="83.2768103448276" y="7.147155172413792" width="4.758103448275862" height="4.758103448275862" rx="4"></rect><rect x="95.96508620689656" y="7.147155172413792" width="4.758103448275862" height="4.758103448275862" rx="4"></rect><rect x="102.30922413793104" y="7.147155172413792" width="4.758103448275862" height="4.758103448275862" rx="4"></rect><rect x="114.9975" y="7.147155172413792" width="4.758103448275862" height="4.758103448275862" rx="4"></rect><rect x="121.34163793103448" y="7.147155172413792" width="4.758103448275862" height="4.758103448275862" rx="4"></rect><rect x="51.55612068965517" y="13.491293103448275" width="4.758103448275862" height="4.758103448275862" rx="4"></rect><rect x="64.24439655172414" y="13.491293103448275" width="4.758103448275862" height="4.758103448275862" rx="4"></rect><rect x="76.93267241379311" y="13.491293103448275" width="4.758103448275862" height="4.758103448275862" rx="4"></rect><rect x="83.2768103448276" y="13.491293103448275" width="4.758103448275862" height="4.758103448275862" rx="4"></rect><rect x="95.96508620689656" y="13.491293103448275" width="4.758103448275862" height="4.758103448275862" rx="4"></rect><rect x="102.30922413793104" y="13.491293103448275" width="4.758103448275862" height="4.758103448275862" rx="4"></rect><rect x="108.65336206896552" y="13.491293103448275" width="4.758103448275862" height="4.758103448275862" rx="4"></rect><rect x="114.9975" y="13.491293103448275" width="4.758103448275862" height="4.758103448275862" rx="4"></rect><rect x="64.24439655172414" y="19.83543103448276" width="4.758103448275862" height="4.758103448275862" rx="4"></rect><rect x="70.58853448275863" y="19.83543103448276" width="4.758103448275862" height="4.758103448275862" rx="4"></rect><rect x="83.2768103448276" y="19.83543103448276" width="4.758103448275862" height="4.758103448275862" rx="4"></rect><rect x="95.96508620689656" y="19.83543103448276" width="4.758103448275862" height="4.758103448275862" rx="4"></rect><rect x="114.9975" y="19.83543103448276" width="4.758103448275862" height="4.758103448275862" rx="4"></rect><rect x="51.55612068965517" y="26.17956896551724" width="4.758103448275862" height="4.758103448275862" rx="4"></rect><rect x="57.90025862068965" y="26.17956896551724" width="4.758103448275862" height="4.758103448275862" rx="4"></rect><rect x="70.58853448275863" y="26.17956896551724" width="4.758103448275862" height="4.758103448275862" rx="4"></rect><rect x="83.2768103448276" y="26.17956896551724" width="4.758103448275862" height="4.758103448275862" rx="4"></rect><rect x="95.96508620689656" y="26.17956896551724" width="4.758103448275862" height="4.758103448275862" rx="4"></rect><rect x="102.30922413793104" y="26.17956896551724" width="4.758103448275862" height="4.758103448275862" rx="4"></rect><rect x="108.65336206896552" y="26.17956896551724" width="4.758103448275862" height="4.758103448275862" rx="4"></rect><rect x="51.55612068965517" y="32.52370689655172" width="4.758103448275862" height="4.758103448275862" rx="4"></rect><rect x="64.24439655172414" y="32.52370689655172" width="4.758103448275862" height="4.758103448275862" rx="4"></rect><rect x="76.93267241379311" y="32.52370689655172" width="4.758103448275862" height="4.758103448275862" rx="4"></rect><rect x="83.2768103448276" y="32.52370689655172" width="4.758103448275862" height="4.758103448275862" rx="4"></rect><rect x="89.62094827586208" y="32.52370689655172" width="4.758103448275862" height="4.758103448275862" rx="4"></rect><rect x="102.30922413793104" y="32.52370689655172" width="4.758103448275862" height="4.758103448275862" rx="4"></rect><rect x="108.65336206896552" y="32.52370689655172" width="4.758103448275862" height="4.758103448275862" rx="4"></rect><rect x="121.34163793103448" y="32.52370689655172" width="4.758103448275862" height="4.758103448275862" rx="4"></rect><rect x="127.68577586206897" y="32.52370689655172" width="4.758103448275862" height="4.758103448275862" rx="4"></rect><rect x="51.55612068965517" y="38.867844827586204" width="4.758103448275862" height="4.758103448275862" rx="4"></rect><rect x="64.24439655172414" y="38.867844827586204" width="4.758103448275862" height="4.758103448275862" rx="4"></rect><rect x="76.93267241379311" y="38.867844827586204" width="4.758103448275862" height="4.758103448275862" rx="4"></rect><rect x="89.62094827586208" y="38.867844827586204" width="4.758103448275862" height="4.758103448275862" rx="4"></rect><rect x="102.30922413793104" y="38.867844827586204" width="4.758103448275862" height="4.758103448275862" rx="4"></rect><rect x="114.9975" y="38.867844827586204" width="4.758103448275862" height="4.758103448275862" rx="4"></rect><rect x="127.68577586206897" y="38.867844827586204" width="4.758103448275862" height="4.758103448275862" rx="4"></rect><rect x="83.2768103448276" y="45.211982758620685" width="4.758103448275862" height="4.758103448275862" rx="4"></rect><rect x="89.62094827586208" y="45.211982758620685" width="4.758103448275862" height="4.758103448275862" rx="4"></rect><rect x="121.34163793103448" y="45.211982758620685" width="4.758103448275862" height="4.758103448275862" rx="4"></rect><rect x="127.68577586206897" y="45.211982758620685" width="4.758103448275862" height="4.758103448275862" rx="4"></rect><rect x="7.147155172413792" y="51.55612068965517" width="4.758103448275862" height="4.758103448275862" rx="4"></rect><rect x="26.17956896551724" y="51.55612068965517" width="4.758103448275862" height="4.758103448275862" rx="4"></rect><rect x="38.867844827586204" y="51.55612068965517" width="4.758103448275862" height="4.758103448275862" rx="4"></rect><rect x="51.55612068965517" y="51.55612068965517" width="4.758103448275862" height="4.758103448275862" rx="4"></rect><rect x="70.58853448275863" y="51.55612068965517" width="4.758103448275862" height="4.758103448275862" rx="4"></rect><rect x="76.93267241379311" y="51.55612068965517" width="4.758103448275862" height="4.758103448275862" rx="4"></rect><rect x="83.2768103448276" y="51.55612068965517" width="4.758103448275862" height="4.758103448275862" rx="4"></rect><rect x="95.96508620689656" y="51.55612068965517" width="4.758103448275862" height="4.758103448275862" rx="4"></rect><rect x="102.30922413793104" y="51.55612068965517" width="4.758103448275862" height="4.758103448275862" rx="4"></rect><rect x="127.68577586206897" y="51.55612068965517" width="4.758103448275862" height="4.758103448275862" rx="4"></rect><rect x="134.02991379310345" y="51.55612068965517" width="4.758103448275862" height="4.758103448275862" rx="4"></rect><rect x="146.7181896551724" y="51.55612068965517" width="4.758103448275862" height="4.758103448275862" rx="4"></rect><rect x="153.0623275862069" y="51.55612068965517" width="4.758103448275862" height="4.758103448275862" rx="4"></rect><rect x="165.75060344827585" y="51.55612068965517" width="4.758103448275862" height="4.758103448275862" rx="4"></rect><rect x="7.147155172413792" y="57.90025862068965" width="4.758103448275862" height="4.758103448275862" rx="4"></rect><rect x="26.17956896551724" y="57.90025862068965" width="4.758103448275862" height="4.758103448275862" rx="4"></rect><rect x="45.211982758620685" y="57.90025862068965" width="4.758103448275862" height="4.758103448275862" rx="4"></rect><rect x="51.55612068965517" y="57.90025862068965" width="4.758103448275862" height="4.758103448275862" rx="4"></rect><rect x="57.90025862068965" y="57.90025862068965" width="4.758103448275862" height="4.758103448275862" rx="4"></rect><rect x="70.58853448275863" y="57.90025862068965" width="4.758103448275862" height="4.758103448275862" rx="4"></rect><rect x="95.96508620689656" y="57.90025862068965" width="4.758103448275862" height="4.758103448275862" rx="4"></rect><rect x="114.9975" y="57.90025862068965" width="4.758103448275862" height="4.758103448275862" rx="4"></rect><rect x="121.34163793103448" y="57.90025862068965" width="4.758103448275862" height="4.758103448275862" rx="4"></rect><rect x="146.7181896551724" y="57.90025862068965" width="4.758103448275862" height="4.758103448275862" rx="4"></rect><rect x="172.09474137931034" y="57.90025862068965" width="4.758103448275862" height="4.758103448275862" rx="4"></rect><rect x="178.43887931034482" y="57.90025862068965" width="4.758103448275862" height="4.758103448275862" rx="4"></rect><rect x="38.867844827586204" y="64.24439655172414" width="4.758103448275862" height="4.758103448275862" rx="4"></rect><rect x="51.55612068965517" y="64.24439655172414" width="4.758103448275862" height="4.758103448275862" rx="4"></rect><rect x="83.2768103448276" y="64.24439655172414" width="4.758103448275862" height="4.758103448275862" rx="4"></rect><rect x="89.62094827586208" y="64.24439655172414" width="4.758103448275862" height="4.758103448275862" rx="4"></rect><rect x="95.96508620689656" y="64.24439655172414" width="4.758103448275862" height="4.758103448275862" rx="4"></rect><rect x="102.30922413793104" y="64.24439655172414" width="4.758103448275862" height="4.758103448275862" rx="4"></rect><rect x="108.65336206896552" y="64.24439655172414" width="4.758103448275862" height="4.758103448275862" rx="4"></rect><rect x="114.9975" y="64.24439655172414" width="4.758103448275862" height="4.758103448275862" rx="4"></rect><rect x="121.34163793103448" y="64.24439655172414" width="4.758103448275862" height="4.758103448275862" rx="4"></rect><rect x="146.7181896551724" y="64.24439655172414" width="4.758103448275862" height="4.758103448275862" rx="4"></rect><rect x="153.0623275862069" y="64.24439655172414" width="4.758103448275862" height="4.758103448275862" rx="4"></rect><rect x="178.43887931034482" y="64.24439655172414" width="4.758103448275862" height="4.758103448275862" rx="4"></rect><rect x="7.147155172413792" y="70.58853448275863" width="4.758103448275862" height="4.758103448275862" rx="4"></rect><rect x="26.17956896551724" y="70.58853448275863" width="4.758103448275862" height="4.758103448275862" rx="4"></rect><rect x="32.52370689655172" y="70.58853448275863" width="4.758103448275862" height="4.758103448275862" rx="4"></rect><rect x="45.211982758620685" y="70.58853448275863" width="4.758103448275862" height="4.758103448275862" rx="4"></rect><rect x="51.55612068965517" y="70.58853448275863" width="4.758103448275862" height="4.758103448275862" rx="4"></rect><rect x="57.90025862068965" y="70.58853448275863" width="4.758103448275862" height="4.758103448275862" rx="4"></rect><rect x="70.58853448275863" y="70.58853448275863" width="4.758103448275862" height="4.758103448275862" rx="4"></rect><rect x="76.93267241379311" y="70.58853448275863" width="4.758103448275862" height="4.758103448275862" rx="4"></rect><rect x="83.2768103448276" y="70.58853448275863" width="4.758103448275862" height="4.758103448275862" rx="4"></rect><rect x="89.62094827586208" y="70.58853448275863" width="4.758103448275862" height="4.758103448275862" rx="4"></rect><rect x="102.30922413793104" y="70.58853448275863" width="4.758103448275862" height="4.758103448275862" rx="4"></rect><rect x="108.65336206896552" y="70.58853448275863" width="4.758103448275862" height="4.758103448275862" rx="4"></rect><rect x="114.9975" y="70.58853448275863" width="4.758103448275862" height="4.758103448275862" rx="4"></rect><rect x="121.34163793103448" y="70.58853448275863" width="4.758103448275862" height="4.758103448275862" rx="4"></rect><rect x="127.68577586206897" y="70.58853448275863" width="4.758103448275862" height="4.758103448275862" rx="4"></rect><rect x="153.0623275862069" y="70.58853448275863" width="4.758103448275862" height="4.758103448275862" rx="4"></rect><rect x="172.09474137931034" y="70.58853448275863" width="4.758103448275862" height="4.758103448275862" rx="4"></rect><rect x="178.43887931034482" y="70.58853448275863" width="4.758103448275862" height="4.758103448275862" rx="4"></rect><rect x="13.491293103448275" y="76.93267241379311" width="4.758103448275862" height="4.758103448275862" rx="4"></rect><rect x="19.83543103448276" y="76.93267241379311" width="4.758103448275862" height="4.758103448275862" rx="4"></rect><rect x="38.867844827586204" y="76.93267241379311" width="4.758103448275862" height="4.758103448275862" rx="4"></rect><rect x="45.211982758620685" y="76.93267241379311" width="4.758103448275862" height="4.758103448275862" rx="4"></rect><rect x="64.24439655172414" y="76.93267241379311" width="4.758103448275862" height="4.758103448275862" rx="4"></rect><rect x="70.58853448275863" y="76.93267241379311" width="4.758103448275862" height="4.758103448275862" rx="4"></rect><rect x="83.2768103448276" y="76.93267241379311" width="4.758103448275862" height="4.758103448275862" rx="4"></rect><rect x="89.62094827586208" y="76.93267241379311" width="4.758103448275862" height="4.758103448275862" rx="4"></rect><rect x="95.96508620689656" y="76.93267241379311" width="4.758103448275862" height="4.758103448275862" rx="4"></rect><rect x="102.30922413793104" y="76.93267241379311" width="4.758103448275862" height="4.758103448275862" rx="4"></rect><rect x="108.65336206896552" y="76.93267241379311" width="4.758103448275862" height="4.758103448275862" rx="4"></rect><rect x="127.68577586206897" y="76.93267241379311" width="4.758103448275862" height="4.758103448275862" rx="4"></rect><rect x="159.40646551724137" y="76.93267241379311" width="4.758103448275862" height="4.758103448275862" rx="4"></rect><rect x="178.43887931034482" y="76.93267241379311" width="4.758103448275862" height="4.758103448275862" rx="4"></rect><rect x="19.83543103448276" y="83.2768103448276" width="4.758103448275862" height="4.758103448275862" rx="4"></rect><rect x="26.17956896551724" y="83.2768103448276" width="4.758103448275862" height="4.758103448275862" rx="4"></rect><rect x="32.52370689655172" y="83.2768103448276" width="4.758103448275862" height="4.758103448275862" rx="4"></rect><rect x="45.211982758620685" y="83.2768103448276" width="4.758103448275862" height="4.758103448275862" rx="4"></rect><rect x="64.24439655172414" y="83.2768103448276" width="4.758103448275862" height="4.758103448275862" rx="4"></rect><rect x="76.93267241379311" y="83.2768103448276" width="4.758103448275862" height="4.758103448275862" rx="4"></rect><rect x="83.2768103448276" y="83.2768103448276" width="4.758103448275862" height="4.758103448275862" rx="4"></rect><rect x="114.9975" y="83.2768103448276" width="4.758103448275862" height="4.758103448275862" rx="4"></rect><rect x="140.37405172413793" y="83.2768103448276" width="4.758103448275862" height="4.758103448275862" rx="4"></rect><rect x="153.0623275862069" y="83.2768103448276" width="4.758103448275862" height="4.758103448275862" rx="4"></rect><rect x="165.75060344827585" y="83.2768103448276" width="4.758103448275862" height="4.758103448275862" rx="4"></rect><rect x="178.43887931034482" y="83.2768103448276" width="4.758103448275862" height="4.758103448275862" rx="4"></rect><rect x="0.8030172413793103" y="89.62094827586208" width="4.758103448275862" height="4.758103448275862" rx="4"></rect><rect x="7.147155172413792" y="89.62094827586208" width="4.758103448275862" height="4.758103448275862" rx="4"></rect><rect x="13.491293103448275" y="89.62094827586208" width="4.758103448275862" height="4.758103448275862" rx="4"></rect><rect x="19.83543103448276" y="89.62094827586208" width="4.758103448275862" height="4.758103448275862" rx="4"></rect><rect x="26.17956896551724" y="89.62094827586208" width="4.758103448275862" height="4.758103448275862" rx="4"></rect><rect x="38.867844827586204" y="89.62094827586208" width="4.758103448275862" height="4.758103448275862" rx="4"></rect><rect x="76.93267241379311" y="89.62094827586208" width="4.758103448275862" height="4.758103448275862" rx="4"></rect><rect x="89.62094827586208" y="89.62094827586208" width="4.758103448275862" height="4.758103448275862" rx="4"></rect><rect x="95.96508620689656" y="89.62094827586208" width="4.758103448275862" height="4.758103448275862" rx="4"></rect><rect x="102.30922413793104" y="89.62094827586208" width="4.758103448275862" height="4.758103448275862" rx="4"></rect><rect x="108.65336206896552" y="89.62094827586208" width="4.758103448275862" height="4.758103448275862" rx="4"></rect><rect x="134.02991379310345" y="89.62094827586208" width="4.758103448275862" height="4.758103448275862" rx="4"></rect><rect x="140.37405172413793" y="89.62094827586208" width="4.758103448275862" height="4.758103448275862" rx="4"></rect><rect x="146.7181896551724" y="89.62094827586208" width="4.758103448275862" height="4.758103448275862" rx="4"></rect><rect x="153.0623275862069" y="89.62094827586208" width="4.758103448275862" height="4.758103448275862" rx="4"></rect><rect x="178.43887931034482" y="89.62094827586208" width="4.758103448275862" height="4.758103448275862" rx="4"></rect><rect x="0.8030172413793103" y="95.96508620689656" width="4.758103448275862" height="4.758103448275862" rx="4"></rect><rect x="7.147155172413792" y="95.96508620689656" width="4.758103448275862" height="4.758103448275862" rx="4"></rect><rect x="32.52370689655172" y="95.96508620689656" width="4.758103448275862" height="4.758103448275862" rx="4"></rect><rect x="45.211982758620685" y="95.96508620689656" width="4.758103448275862" height="4.758103448275862" rx="4"></rect><rect x="57.90025862068965" y="95.96508620689656" width="4.758103448275862" height="4.758103448275862" rx="4"></rect><rect x="64.24439655172414" y="95.96508620689656" width="4.758103448275862" height="4.758103448275862" rx="4"></rect><rect x="76.93267241379311" y="95.96508620689656" width="4.758103448275862" height="4.758103448275862" rx="4"></rect><rect x="89.62094827586208" y="95.96508620689656" width="4.758103448275862" height="4.758103448275862" rx="4"></rect><rect x="108.65336206896552" y="95.96508620689656" width="4.758103448275862" height="4.758103448275862" rx="4"></rect><rect x="114.9975" y="95.96508620689656" width="4.758103448275862" height="4.758103448275862" rx="4"></rect><rect x="121.34163793103448" y="95.96508620689656" width="4.758103448275862" height="4.758103448275862" rx="4"></rect><rect x="140.37405172413793" y="95.96508620689656" width="4.758103448275862" height="4.758103448275862" rx="4"></rect><rect x="146.7181896551724" y="95.96508620689656" width="4.758103448275862" height="4.758103448275862" rx="4"></rect><rect x="153.0623275862069" y="95.96508620689656" width="4.758103448275862" height="4.758103448275862" rx="4"></rect><rect x="159.40646551724137" y="95.96508620689656" width="4.758103448275862" height="4.758103448275862" rx="4"></rect><rect x="178.43887931034482" y="95.96508620689656" width="4.758103448275862" height="4.758103448275862" rx="4"></rect><rect x="7.147155172413792" y="102.30922413793104" width="4.758103448275862" height="4.758103448275862" rx="4"></rect><rect x="19.83543103448276" y="102.30922413793104" width="4.758103448275862" height="4.758103448275862" rx="4"></rect><rect x="26.17956896551724" y="102.30922413793104" width="4.758103448275862" height="4.758103448275862" rx="4"></rect><rect x="38.867844827586204" y="102.30922413793104" width="4.758103448275862" height="4.758103448275862" rx="4"></rect><rect x="45.211982758620685" y="102.30922413793104" width="4.758103448275862" height="4.758103448275862" rx="4"></rect><rect x="51.55612068965517" y="102.30922413793104" width="4.758103448275862" height="4.758103448275862" rx="4"></rect><rect x="57.90025862068965" y="102.30922413793104" width="4.758103448275862" height="4.758103448275862" rx="4"></rect><rect x="70.58853448275863" y="102.30922413793104" width="4.758103448275862" height="4.758103448275862" rx="4"></rect><rect x="83.2768103448276" y="102.30922413793104" width="4.758103448275862" height="4.758103448275862" rx="4"></rect><rect x="114.9975" y="102.30922413793104" width="4.758103448275862" height="4.758103448275862" rx="4"></rect><rect x="121.34163793103448" y="102.30922413793104" width="4.758103448275862" height="4.758103448275862" rx="4"></rect><rect x="153.0623275862069" y="102.30922413793104" width="4.758103448275862" height="4.758103448275862" rx="4"></rect><rect x="172.09474137931034" y="102.30922413793104" width="4.758103448275862" height="4.758103448275862" rx="4"></rect><rect x="0.8030172413793103" y="108.65336206896552" width="4.758103448275862" height="4.758103448275862" rx="4"></rect><rect x="7.147155172413792" y="108.65336206896552" width="4.758103448275862" height="4.758103448275862" rx="4"></rect><rect x="26.17956896551724" y="108.65336206896552" width="4.758103448275862" height="4.758103448275862" rx="4"></rect><rect x="64.24439655172414" y="108.65336206896552" width="4.758103448275862" height="4.758103448275862" rx="4"></rect><rect x="70.58853448275863" y="108.65336206896552" width="4.758103448275862" height="4.758103448275862" rx="4"></rect><rect x="76.93267241379311" y="108.65336206896552" width="4.758103448275862" height="4.758103448275862" rx="4"></rect><rect x="102.30922413793104" y="108.65336206896552" width="4.758103448275862" height="4.758103448275862" rx="4"></rect><rect x="121.34163793103448" y="108.65336206896552" width="4.758103448275862" height="4.758103448275862" rx="4"></rect><rect x="127.68577586206897" y="108.65336206896552" width="4.758103448275862" height="4.758103448275862" rx="4"></rect><rect x="134.02991379310345" y="108.65336206896552" width="4.758103448275862" height="4.758103448275862" rx="4"></rect><rect x="153.0623275862069" y="108.65336206896552" width="4.758103448275862" height="4.758103448275862" rx="4"></rect><rect x="178.43887931034482" y="108.65336206896552" width="4.758103448275862" height="4.758103448275862" rx="4"></rect><rect x="19.83543103448276" y="114.9975" width="4.758103448275862" height="4.758103448275862" rx="4"></rect><rect x="38.867844827586204" y="114.9975" width="4.758103448275862" height="4.758103448275862" rx="4"></rect><rect x="45.211982758620685" y="114.9975" width="4.758103448275862" height="4.758103448275862" rx="4"></rect><rect x="57.90025862068965" y="114.9975" width="4.758103448275862" height="4.758103448275862" rx="4"></rect><rect x="64.24439655172414" y="114.9975" width="4.758103448275862" height="4.758103448275862" rx="4"></rect><rect x="102.30922413793104" y="114.9975" width="4.758103448275862" height="4.758103448275862" rx="4"></rect><rect x="108.65336206896552" y="114.9975" width="4.758103448275862" height="4.758103448275862" rx="4"></rect><rect x="114.9975" y="114.9975" width="4.758103448275862" height="4.758103448275862" rx="4"></rect><rect x="127.68577586206897" y="114.9975" width="4.758103448275862" height="4.758103448275862" rx="4"></rect><rect x="146.7181896551724" y="114.9975" width="4.758103448275862" height="4.758103448275862" rx="4"></rect><rect x="153.0623275862069" y="114.9975" width="4.758103448275862" height="4.758103448275862" rx="4"></rect><rect x="165.75060344827585" y="114.9975" width="4.758103448275862" height="4.758103448275862" rx="4"></rect><rect x="178.43887931034482" y="114.9975" width="4.758103448275862" height="4.758103448275862" rx="4"></rect><rect x="19.83543103448276" y="121.34163793103448" width="4.758103448275862" height="4.758103448275862" rx="4"></rect><rect x="26.17956896551724" y="121.34163793103448" width="4.758103448275862" height="4.758103448275862" rx="4"></rect><rect x="32.52370689655172" y="121.34163793103448" width="4.758103448275862" height="4.758103448275862" rx="4"></rect><rect x="51.55612068965517" y="121.34163793103448" width="4.758103448275862" height="4.758103448275862" rx="4"></rect><rect x="64.24439655172414" y="121.34163793103448" width="4.758103448275862" height="4.758103448275862" rx="4"></rect><rect x="70.58853448275863" y="121.34163793103448" width="4.758103448275862" height="4.758103448275862" rx="4"></rect><rect x="76.93267241379311" y="121.34163793103448" width="4.758103448275862" height="4.758103448275862" rx="4"></rect><rect x="83.2768103448276" y="121.34163793103448" width="4.758103448275862" height="4.758103448275862" rx="4"></rect><rect x="108.65336206896552" y="121.34163793103448" width="4.758103448275862" height="4.758103448275862" rx="4"></rect><rect x="159.40646551724137" y="121.34163793103448" width="4.758103448275862" height="4.758103448275862" rx="4"></rect><rect x="178.43887931034482" y="121.34163793103448" width="4.758103448275862" height="4.758103448275862" rx="4"></rect><rect x="0.8030172413793103" y="127.68577586206897" width="4.758103448275862" height="4.758103448275862" rx="4"></rect><rect x="7.147155172413792" y="127.68577586206897" width="4.758103448275862" height="4.758103448275862" rx="4"></rect><rect x="32.52370689655172" y="127.68577586206897" width="4.758103448275862" height="4.758103448275862" rx="4"></rect><rect x="38.867844827586204" y="127.68577586206897" width="4.758103448275862" height="4.758103448275862" rx="4"></rect><rect x="51.55612068965517" y="127.68577586206897" width="4.758103448275862" height="4.758103448275862" rx="4"></rect><rect x="57.90025862068965" y="127.68577586206897" width="4.758103448275862" height="4.758103448275862" rx="4"></rect><rect x="70.58853448275863" y="127.68577586206897" width="4.758103448275862" height="4.758103448275862" rx="4"></rect><rect x="89.62094827586208" y="127.68577586206897" width="4.758103448275862" height="4.758103448275862" rx="4"></rect><rect x="95.96508620689656" y="127.68577586206897" width="4.758103448275862" height="4.758103448275862" rx="4"></rect><rect x="102.30922413793104" y="127.68577586206897" width="4.758103448275862" height="4.758103448275862" rx="4"></rect><rect x="108.65336206896552" y="127.68577586206897" width="4.758103448275862" height="4.758103448275862" rx="4"></rect><rect x="121.34163793103448" y="127.68577586206897" width="4.758103448275862" height="4.758103448275862" rx="4"></rect><rect x="127.68577586206897" y="127.68577586206897" width="4.758103448275862" height="4.758103448275862" rx="4"></rect><rect x="134.02991379310345" y="127.68577586206897" width="4.758103448275862" height="4.758103448275862" rx="4"></rect><rect x="140.37405172413793" y="127.68577586206897" width="4.758103448275862" height="4.758103448275862" rx="4"></rect><rect x="146.7181896551724" y="127.68577586206897" width="4.758103448275862" height="4.758103448275862" rx="4"></rect><rect x="153.0623275862069" y="127.68577586206897" width="4.758103448275862" height="4.758103448275862" rx="4"></rect><rect x="159.40646551724137" y="127.68577586206897" width="4.758103448275862" height="4.758103448275862" rx="4"></rect><rect x="172.09474137931034" y="127.68577586206897" width="4.758103448275862" height="4.758103448275862" rx="4"></rect><rect x="51.55612068965517" y="134.02991379310345" width="4.758103448275862" height="4.758103448275862" rx="4"></rect><rect x="64.24439655172414" y="134.02991379310345" width="4.758103448275862" height="4.758103448275862" rx="4"></rect><rect x="76.93267241379311" y="134.02991379310345" width="4.758103448275862" height="4.758103448275862" rx="4"></rect><rect x="83.2768103448276" y="134.02991379310345" width="4.758103448275862" height="4.758103448275862" rx="4"></rect><rect x="95.96508620689656" y="134.02991379310345" width="4.758103448275862" height="4.758103448275862" rx="4"></rect><rect x="102.30922413793104" y="134.02991379310345" width="4.758103448275862" height="4.758103448275862" rx="4"></rect><rect x="108.65336206896552" y="134.02991379310345" width="4.758103448275862" height="4.758103448275862" rx="4"></rect><rect x="127.68577586206897" y="134.02991379310345" width="4.758103448275862" height="4.758103448275862" rx="4"></rect><rect x="153.0623275862069" y="134.02991379310345" width="4.758103448275862" height="4.758103448275862" rx="4"></rect><rect x="165.75060344827585" y="134.02991379310345" width="4.758103448275862" height="4.758103448275862" rx="4"></rect><rect x="178.43887931034482" y="134.02991379310345" width="4.758103448275862" height="4.758103448275862" rx="4"></rect><rect x="57.90025862068965" y="140.37405172413793" width="4.758103448275862" height="4.758103448275862" rx="4"></rect><rect x="64.24439655172414" y="140.37405172413793" width="4.758103448275862" height="4.758103448275862" rx="4"></rect><rect x="70.58853448275863" y="140.37405172413793" width="4.758103448275862" height="4.758103448275862" rx="4"></rect><rect x="83.2768103448276" y="140.37405172413793" width="4.758103448275862" height="4.758103448275862" rx="4"></rect><rect x="95.96508620689656" y="140.37405172413793" width="4.758103448275862" height="4.758103448275862" rx="4"></rect><rect x="114.9975" y="140.37405172413793" width="4.758103448275862" height="4.758103448275862" rx="4"></rect><rect x="121.34163793103448" y="140.37405172413793" width="4.758103448275862" height="4.758103448275862" rx="4"></rect><rect x="127.68577586206897" y="140.37405172413793" width="4.758103448275862" height="4.758103448275862" rx="4"></rect><rect x="140.37405172413793" y="140.37405172413793" width="4.758103448275862" height="4.758103448275862" rx="4"></rect><rect x="153.0623275862069" y="140.37405172413793" width="4.758103448275862" height="4.758103448275862" rx="4"></rect><rect x="178.43887931034482" y="140.37405172413793" width="4.758103448275862" height="4.758103448275862" rx="4"></rect><rect x="57.90025862068965" y="146.7181896551724" width="4.758103448275862" height="4.758103448275862" rx="4"></rect><rect x="64.24439655172414" y="146.7181896551724" width="4.758103448275862" height="4.758103448275862" rx="4"></rect><rect x="70.58853448275863" y="146.7181896551724" width="4.758103448275862" height="4.758103448275862" rx="4"></rect><rect x="95.96508620689656" y="146.7181896551724" width="4.758103448275862" height="4.758103448275862" rx="4"></rect><rect x="121.34163793103448" y="146.7181896551724" width="4.758103448275862" height="4.758103448275862" rx="4"></rect><rect x="127.68577586206897" y="146.7181896551724" width="4.758103448275862" height="4.758103448275862" rx="4"></rect><rect x="153.0623275862069" y="146.7181896551724" width="4.758103448275862" height="4.758103448275862" rx="4"></rect><rect x="159.40646551724137" y="146.7181896551724" width="4.758103448275862" height="4.758103448275862" rx="4"></rect><rect x="172.09474137931034" y="146.7181896551724" width="4.758103448275862" height="4.758103448275862" rx="4"></rect><rect x="51.55612068965517" y="153.0623275862069" width="4.758103448275862" height="4.758103448275862" rx="4"></rect><rect x="57.90025862068965" y="153.0623275862069" width="4.758103448275862" height="4.758103448275862" rx="4"></rect><rect x="64.24439655172414" y="153.0623275862069" width="4.758103448275862" height="4.758103448275862" rx="4"></rect><rect x="70.58853448275863" y="153.0623275862069" width="4.758103448275862" height="4.758103448275862" rx="4"></rect><rect x="89.62094827586208" y="153.0623275862069" width="4.758103448275862" height="4.758103448275862" rx="4"></rect><rect x="102.30922413793104" y="153.0623275862069" width="4.758103448275862" height="4.758103448275862" rx="4"></rect><rect x="121.34163793103448" y="153.0623275862069" width="4.758103448275862" height="4.758103448275862" rx="4"></rect><rect x="127.68577586206897" y="153.0623275862069" width="4.758103448275862" height="4.758103448275862" rx="4"></rect><rect x="134.02991379310345" y="153.0623275862069" width="4.758103448275862" height="4.758103448275862" rx="4"></rect><rect x="140.37405172413793" y="153.0623275862069" width="4.758103448275862" height="4.758103448275862" rx="4"></rect><rect x="146.7181896551724" y="153.0623275862069" width="4.758103448275862" height="4.758103448275862" rx="4"></rect><rect x="153.0623275862069" y="153.0623275862069" width="4.758103448275862" height="4.758103448275862" rx="4"></rect><rect x="178.43887931034482" y="153.0623275862069" width="4.758103448275862" height="4.758103448275862" rx="4"></rect><rect x="57.90025862068965" y="159.40646551724137" width="4.758103448275862" height="4.758103448275862" rx="4"></rect><rect x="64.24439655172414" y="159.40646551724137" width="4.758103448275862" height="4.758103448275862" rx="4"></rect><rect x="70.58853448275863" y="159.40646551724137" width="4.758103448275862" height="4.758103448275862" rx="4"></rect><rect x="76.93267241379311" y="159.40646551724137" width="4.758103448275862" height="4.758103448275862" rx="4"></rect><rect x="83.2768103448276" y="159.40646551724137" width="4.758103448275862" height="4.758103448275862" rx="4"></rect><rect x="114.9975" y="159.40646551724137" width="4.758103448275862" height="4.758103448275862" rx="4"></rect><rect x="127.68577586206897" y="159.40646551724137" width="4.758103448275862" height="4.758103448275862" rx="4"></rect><rect x="134.02991379310345" y="159.40646551724137" width="4.758103448275862" height="4.758103448275862" rx="4"></rect><rect x="146.7181896551724" y="159.40646551724137" width="4.758103448275862" height="4.758103448275862" rx="4"></rect><rect x="159.40646551724137" y="159.40646551724137" width="4.758103448275862" height="4.758103448275862" rx="4"></rect><rect x="165.75060344827585" y="159.40646551724137" width="4.758103448275862" height="4.758103448275862" rx="4"></rect><rect x="172.09474137931034" y="159.40646551724137" width="4.758103448275862" height="4.758103448275862" rx="4"></rect><rect x="57.90025862068965" y="165.75060344827585" width="4.758103448275862" height="4.758103448275862" rx="4"></rect><rect x="70.58853448275863" y="165.75060344827585" width="4.758103448275862" height="4.758103448275862" rx="4"></rect><rect x="95.96508620689656" y="165.75060344827585" width="4.758103448275862" height="4.758103448275862" rx="4"></rect><rect x="108.65336206896552" y="165.75060344827585" width="4.758103448275862" height="4.758103448275862" rx="4"></rect><rect x="134.02991379310345" y="165.75060344827585" width="4.758103448275862" height="4.758103448275862" rx="4"></rect><rect x="146.7181896551724" y="165.75060344827585" width="4.758103448275862" height="4.758103448275862" rx="4"></rect><rect x="159.40646551724137" y="165.75060344827585" width="4.758103448275862" height="4.758103448275862" rx="4"></rect><rect x="165.75060344827585" y="165.75060344827585" width="4.758103448275862" height="4.758103448275862" rx="4"></rect><rect x="172.09474137931034" y="165.75060344827585" width="4.758103448275862" height="4.758103448275862" rx="4"></rect><rect x="178.43887931034482" y="165.75060344827585" width="4.758103448275862" height="4.758103448275862" rx="4"></rect><rect x="51.55612068965517" y="172.09474137931034" width="4.758103448275862" height="4.758103448275862" rx="4"></rect><rect x="70.58853448275863" y="172.09474137931034" width="4.758103448275862" height="4.758103448275862" rx="4"></rect><rect x="76.93267241379311" y="172.09474137931034" width="4.758103448275862" height="4.758103448275862" rx="4"></rect><rect x="89.62094827586208" y="172.09474137931034" width="4.758103448275862" height="4.758103448275862" rx="4"></rect><rect x="95.96508620689656" y="172.09474137931034" width="4.758103448275862" height="4.758103448275862" rx="4"></rect><rect x="102.30922413793104" y="172.09474137931034" width="4.758103448275862" height="4.758103448275862" rx="4"></rect><rect x="108.65336206896552" y="172.09474137931034" width="4.758103448275862" height="4.758103448275862" rx="4"></rect><rect x="146.7181896551724" y="172.09474137931034" width="4.758103448275862" height="4.758103448275862" rx="4"></rect><rect x="159.40646551724137" y="172.09474137931034" width="4.758103448275862" height="4.758103448275862" rx="4"></rect><rect x="172.09474137931034" y="172.09474137931034" width="4.758103448275862" height="4.758103448275862" rx="4"></rect><rect x="178.43887931034482" y="172.09474137931034" width="4.758103448275862" height="4.758103448275862" rx="4"></rect><rect x="64.24439655172414" y="178.43887931034482" width="4.758103448275862" height="4.758103448275862" rx="4"></rect><rect x="70.58853448275863" y="178.43887931034482" width="4.758103448275862" height="4.758103448275862" rx="4"></rect><rect x="76.93267241379311" y="178.43887931034482" width="4.758103448275862" height="4.758103448275862" rx="4"></rect><rect x="83.2768103448276" y="178.43887931034482" width="4.758103448275862" height="4.758103448275862" rx="4"></rect><rect x="108.65336206896552" y="178.43887931034482" width="4.758103448275862" height="4.758103448275862" rx="4"></rect><rect x="140.37405172413793" y="178.43887931034482" width="4.758103448275862" height="4.758103448275862" rx="4"></rect><rect x="153.0623275862069" y="178.43887931034482" width="4.758103448275862" height="4.758103448275862" rx="4"></rect><rect x="172.09474137931034" y="178.43887931034482" width="4.758103448275862" height="4.758103448275862" rx="4"></rect></g><g><rect x="3.172068965517241" y="3.172068965517241" width="38.064827586206896" fill="none" height="38.064827586206896" stroke-width="6.344137931034482" stroke="#222222"></rect><rect x="12.688275862068965" y="12.688275862068965" width="19.032413793103448" fill="#222222" height="19.032413793103448"></rect><rect x="142.76310344827587" y="3.172068965517241" width="38.064827586206896" fill="none" height="38.064827586206896" stroke-width="6.344137931034482" stroke="#222222"></rect><rect x="152.2793103448276" y="12.688275862068965" width="19.032413793103448" fill="#222222" height="19.032413793103448"></rect><rect x="3.172068965517241" y="142.76310344827587" width="38.064827586206896" fill="none" height="38.064827586206896" stroke-width="6.344137931034482" stroke="#222222"></rect><rect x="12.688275862068965" y="152.2793103448276" width="19.032413793103448" fill="#222222" height="19.032413793103448"></rect></g></g></svg>